<svg id="Capa_1" data-name="Capa 1" xmlns="http://www.w3.org/2000/svg" viewBox="0 0 1000 291"><defs><style>.cls-1,.cls-2{fill:#111;}.cls-2{fill-rule:evenodd;}</style></defs><path class="cls-1" d="M416.23,195.53l24.64-34.13h35.05l-34.14-47.27-59.32,81.4H331.9l84.33-117a36.46,36.46,0,0,1,11.13-10.23q7.86-4.74,15.15-4.74a28.68,28.68,0,0,1,15.15,4.74,36.61,36.61,0,0,1,10.95,10.23l82.32,117Z"/><polygon class="cls-2" points="669.35 133.52 590.29 215.56 538.46 215.56 619.74 130.92 554.77 63.93 607.51 63.93 649.05 107.25 642.27 125.5 720.99 43.91 773.92 43.91 688.92 130.92 751.16 195.53 699.14 195.53 661.42 155.81 669.35 133.52"/><path class="cls-1" d="M999.39,195.9H954.67l-17.33-69.54-36.88,59.32q-7.29,11.49-20.07,11.5a27,27,0,0,1-12.78-3.29,23.84,23.84,0,0,1-9.31-8.21l-37-59.32L804.09,195.9h-44.9L793.33,79.08a22.18,22.18,0,0,1,8.48-12,24.18,24.18,0,0,1,14.88-4.84q13,0,22.45,15.33l40.15,65.53,40.34-65.53q9.3-15.33,22.27-15.33a24.08,24.08,0,0,1,15,4.84,23.39,23.39,0,0,1,8.57,12Z"/><path class="cls-1" d="M375,237.79v9.8H359.33V289H347.78V247.59H332.2v-9.8Z"/><path class="cls-1" d="M434.8,237.79v9.58H407.38v11.11H432v9.58H407.38V279.4h28.23V289H395.83V237.79Z"/><path class="cls-1" d="M483,247.44A15.76,15.76,0,0,0,483,279c4.6,0,9.65-2.34,13.31-6l6.8,7.39c-5.41,5.55-13.24,9.14-20.7,9.14-15.28,0-26.83-11.34-26.83-26.18s11.77-25.89,27.27-25.89A29.11,29.11,0,0,1,503,245.9l-6.72,8.2C492.8,250.07,487.75,247.44,483,247.44Z"/><path class="cls-1" d="M536.17,237.79v21.35h23.18V237.79H570.9V289H559.35V268.79H536.17V289H524.61V237.79Z"/><path class="cls-1" d="M607.25,237.79l24.86,32.9v-32.9h11V289H632.55l-24.79-32.84V289h-11V237.79Z"/><path class="cls-1" d="M720.24,263.38c0,14.77-11.85,26.11-27.5,26.11s-27.49-11.26-27.49-26.11,11.84-26,27.49-26S720.24,248.54,720.24,263.38Zm-43.15,0a15.92,15.92,0,0,0,15.8,16,15.95,15.95,0,1,0-15.8-16Z"/><path class="cls-1" d="M754,237.79v41.09h21.93V289H742.4V237.79Z"/><path class="cls-1" d="M847.71,263.38c0,14.77-11.85,26.11-27.5,26.11s-27.49-11.26-27.49-26.11,11.84-26,27.49-26S847.71,248.54,847.71,263.38Zm-43.15,0a15.92,15.92,0,0,0,15.8,16,15.95,15.95,0,1,0-15.8-16Z"/><path class="cls-1" d="M904.24,263.16h10v19.67a37.87,37.87,0,0,1-20.77,6.66c-15.5,0-27.27-11.26-27.27-26.11s12-26,27.93-26a32.29,32.29,0,0,1,20.55,7.46l-6.51,8.26a21.42,21.42,0,0,0-14-5.7,16,16,0,1,0,.07,32,23.35,23.35,0,0,0,10-2.78Z"/><path class="cls-1" d="M963.63,272.45V289H952.07V272.74l-18.94-35h11.63l13.09,23,12.8-23h11.62Z"/><path class="cls-1" d="M359.86,22.93h8.95V38.58a31.81,31.81,0,0,1-16.55,5.1C340.13,43.68,331,35,331,23.39s9.35-20.18,21.94-20.18A25.58,25.58,0,0,1,369.27,9.1l-5.9,7.26A16,16,0,0,0,352.88,12a11.08,11.08,0,0,0-11.22,11.4A11.15,11.15,0,0,0,353,34.84,16.31,16.31,0,0,0,359.86,33Z"/><path class="cls-1" d="M399.53,43.23l-5.78-11H386v11H375.67V3.49h17.85c10.55,0,16.55,5.1,16.55,14,0,6-2.49,10.43-7.08,12.81l8.27,13ZM386,24h7.54c4.19,0,6.63-2.15,6.63-6.18s-2.44-6-6.63-6H386Z"/><path class="cls-1" d="M434.5,34.84c4.59,0,7.77-3.12,7.77-8.28V3.49h10.37V26.56c0,10.49-7,17.12-18.19,17.12S416,37.05,416,26.56V3.49H426.4V26.56C426.4,31.66,429.8,34.84,434.5,34.84Z"/><path class="cls-1" d="M493.11,17.44c0,9.35-5.84,14.79-16,14.79H470v11H459.67V3.49h17.46C487.27,3.49,493.11,8.59,493.11,17.44Zm-9.86.33c0-3.91-2.44-6-6.63-6H470V24h6.58C480.81,24,483.25,21.8,483.25,17.77Z"/><path class="cls-1" d="M538.63,23.33c0,11.62-9.19,20.35-21.49,20.35S495.66,35,495.66,23.33s9.18-20.12,21.48-20.12S538.63,11.82,538.63,23.33Zm-32.31.06a11.21,11.21,0,0,0,10.94,11.45c6,0,10.71-5,10.71-11.45s-4.76-11.34-10.71-11.34A11.07,11.07,0,0,0,506.32,23.39Z"/><path class="cls-1" d="M104.05,144H119.5v22.44c-6.06,4-16.08,7-23.84,7-17.08,0-29.51-11.8-29.51-27.95s12.89-27.8,30.67-27.8c8.47,0,17.71,3.26,23.53,8.39l-10.17,12.34a20.71,20.71,0,0,0-13.43-5.74c-7,0-12.12,5.43-12.12,12.81,0,7.53,5.21,13,12.27,13a20.75,20.75,0,0,0,7.15-1.79Z"/><path class="cls-1" d="M159.32,165H138.9l-2.79,7.69H117.63l23-54.43h18.48l22.13,54.43H162Zm-4.42-12.89-5.59-15.92-5.75,15.92Z"/><path class="cls-1" d="M223.22,118.21v14.2H207.69v40.23h-18V132.41H174.23v-14.2Z"/><path class="cls-2" d="M227.09,215.12V76a13.3,13.3,0,0,0-13.3-13.3H74.62A13.3,13.3,0,0,0,61.32,76V215.12a13.32,13.32,0,0,0,13.3,13.3H213.79a13.32,13.32,0,0,0,13.3-13.3ZM47.18,100.41H7.68a7.08,7.08,0,0,1,0-14.15h39.5V76A27.43,27.43,0,0,1,74.62,48.51h9.27V8.4A7.08,7.08,0,0,1,98,8.4V48.51h20.65V8.4a7.08,7.08,0,0,1,14.15,0V48.51h20.65V8.4a7.08,7.08,0,0,1,14.15,0V48.51h20.65V8.4a7.08,7.08,0,0,1,14.15,0V48.51h11.35A27.45,27.45,0,0,1,241.24,76v10.3h39.49a7.08,7.08,0,0,1,0,14.15H241.24v20.65h39.49a7.08,7.08,0,0,1,0,14.15H241.24v20.65h39.49a7.08,7.08,0,0,1,0,14.15H241.24v20.65h39.49a7.08,7.08,0,0,1,0,14.15H241.24v10.31a27.45,27.45,0,0,1-27.45,27.45H202.44v40.1a7.08,7.08,0,0,1-14.15,0v-40.1H167.64v40.1a7.08,7.08,0,0,1-14.15,0v-40.1H132.84v40.1a7.08,7.08,0,0,1-14.15,0v-40.1H98v40.1a7.08,7.08,0,0,1-14.15,0v-40.1H74.62a27.43,27.43,0,0,1-27.44-27.45V204.81H7.68a7.08,7.08,0,0,1,0-14.15h39.5V170H7.68a7.08,7.08,0,0,1,0-14.15h39.5V135.21H7.68a7.08,7.08,0,0,1,0-14.15h39.5Z"/></svg>